<svg width="30" height="38" viewBox="0 0 30 38" fill="none" xmlns="http://www.w3.org/2000/svg">
<path fill-rule="evenodd" clip-rule="evenodd" d="M0 22.3336C0 30.4956 6.26788 37.3332 15 37.3332C23.7321 37.3332 30 30.4956 30 22.3336C30 18.6668 28.7656 14.3148 26.4801 9.90024C23.2226 3.60836 20.3371 0.666504 15.8333 0.666504H14.1667C9.61864 0.666504 5.98334 4.33544 3.47632 9.99109C1.05393 15.4558 0 18.9754 0 22.3336ZM26.6667 22.3336C26.6667 28.7163 21.8233 33.9998 15 33.9998C8.17669 33.9998 3.33333 28.7163 3.33333 22.3336C3.33333 19.5606 4.27606 16.4124 6.52368 11.3419C8.55353 6.76272 11.2911 3.99984 14.1667 3.99984H15.8333C18.6699 3.99984 20.7917 6.163 23.5199 11.4328C25.5764 15.4049 26.6667 19.2488 26.6667 22.3336ZM15 28.5832C11.3181 28.5832 8.33333 25.5984 8.33333 21.9165C8.33333 18.0853 11.37 13.9998 15 13.9998C18.63 13.9998 21.6667 18.0853 21.6667 21.9165C21.6667 25.5984 18.6819 28.5832 15 28.5832ZM18.3333 21.9165C18.3333 23.7575 16.8409 25.2498 15 25.2498C13.159 25.2498 11.6667 23.7575 11.6667 21.9165C11.6667 19.748 13.4616 17.3332 15 17.3332C16.5384 17.3332 18.3333 19.748 18.3333 21.9165Z" fill="#22C85A"/>
</svg>
