<svg width="34" height="34" viewBox="0 0 34 34" fill="none" xmlns="http://www.w3.org/2000/svg">
<path fill-rule="evenodd" clip-rule="evenodd" d="M7.83325 15.3333C3.69112 15.3333 0.333252 11.9754 0.333252 7.83325C0.333252 3.69112 3.69112 0.333252 7.83325 0.333252C11.9754 0.333252 15.3333 3.69112 15.3333 7.83325C15.3333 11.9754 11.9754 15.3333 7.83325 15.3333ZM0.333252 26.1666C0.333252 30.3087 3.69112 33.6666 7.83325 33.6666C11.9754 33.6666 15.3333 30.3087 15.3333 26.1666C15.3333 22.0245 11.9754 18.6666 7.83325 18.6666C3.69112 18.6666 0.333252 22.0245 0.333252 26.1666ZM18.6666 26.1666C18.6666 30.3087 22.0245 33.6666 26.1666 33.6666C30.3087 33.6666 33.6666 30.3087 33.6666 26.1666C33.6666 22.0245 30.3087 18.6666 26.1666 18.6666C22.0245 18.6666 18.6666 22.0245 18.6666 26.1666ZM18.6666 7.83325C18.6666 11.9754 22.0245 15.3333 26.1666 15.3333C30.3087 15.3333 33.6666 11.9754 33.6666 7.83325C33.6666 3.69112 30.3087 0.333252 26.1666 0.333252C22.0245 0.333252 18.6666 3.69112 18.6666 7.83325ZM26.1666 11.9999C28.4678 11.9999 30.3333 10.1344 30.3333 7.83325C30.3333 5.53207 28.4678 3.66659 26.1666 3.66659C23.8654 3.66659 21.9999 5.53207 21.9999 7.83325C21.9999 10.1344 23.8654 11.9999 26.1666 11.9999ZM11.9999 7.83325C11.9999 10.1344 10.1344 11.9999 7.83325 11.9999C5.53207 11.9999 3.66659 10.1344 3.66659 7.83325C3.66659 5.53207 5.53207 3.66659 7.83325 3.66659C10.1344 3.66659 11.9999 5.53207 11.9999 7.83325ZM26.1666 30.3333C28.4678 30.3333 30.3333 28.4678 30.3333 26.1666C30.3333 23.8654 28.4678 21.9999 26.1666 21.9999C23.8654 21.9999 21.9999 23.8654 21.9999 26.1666C21.9999 28.4678 23.8654 30.3333 26.1666 30.3333ZM11.9999 26.1666C11.9999 28.4678 10.1344 30.3333 7.83325 30.3333C5.53207 30.3333 3.66659 28.4678 3.66659 26.1666C3.66659 23.8654 5.53207 21.9999 7.83325 21.9999C10.1344 21.9999 11.9999 23.8654 11.9999 26.1666Z" fill="#22C85A"/>
</svg>
