<svg width="38" height="38" viewBox="0 0 38 38" fill="none" xmlns="http://www.w3.org/2000/svg">
<path fill-rule="evenodd" clip-rule="evenodd" d="M19.0001 37.3334C8.87486 37.3334 0.666748 29.1253 0.666748 19.0001C0.666748 8.87486 8.87486 0.666748 19.0001 0.666748C29.1253 0.666748 37.3334 8.87486 37.3334 19.0001C37.3334 29.1253 29.1253 37.3334 19.0001 37.3334ZM19.0001 34.0001C27.2844 34.0001 34.0001 27.2844 34.0001 19.0001C34.0001 10.7158 27.2844 4.00008 19.0001 4.00008C10.7158 4.00008 4.00008 10.7158 4.00008 19.0001C4.00008 27.2844 10.7158 34.0001 19.0001 34.0001ZM23.651 23.651L28.302 9.69818L14.3491 14.3491L9.6982 28.302L23.651 23.651ZM21.0158 21.0158L14.9687 23.0315L16.9844 16.9844L23.0315 14.9686L21.0158 21.0158Z" fill="#22C85A"/>
</svg>
