<svg width="38" height="38" viewBox="0 0 38 38" fill="none" xmlns="http://www.w3.org/2000/svg">
<path fill-rule="evenodd" clip-rule="evenodd" d="M19.0001 37.3332C8.87486 37.3332 0.666748 29.1251 0.666748 18.9998C0.666748 8.87462 8.87486 0.666504 19.0001 0.666504C29.1253 0.666504 37.3334 8.87462 37.3334 18.9998C37.3334 29.1251 29.1253 37.3332 19.0001 37.3332ZM19.0001 33.9998C27.2844 33.9998 34.0001 27.2841 34.0001 18.9998C34.0001 10.7156 27.2844 3.99984 19.0001 3.99984C10.7158 3.99984 4.00008 10.7156 4.00008 18.9998C4.00008 27.2841 10.7158 33.9998 19.0001 33.9998ZM19.0001 7.33317V10.6665C23.6025 10.6665 27.3334 14.3975 27.3334 18.9998H30.6667C30.6667 12.5565 25.4434 7.33317 19.0001 7.33317ZM19.0001 23.9998C16.2387 23.9998 14.0001 21.7613 14.0001 18.9998C14.0001 16.2384 16.2387 13.9998 19.0001 13.9998C21.7615 13.9998 24.0001 16.2384 24.0001 18.9998C24.0001 21.7613 21.7615 23.9998 19.0001 23.9998ZM20.6667 18.9998C20.6667 19.9203 19.9206 20.6665 19.0001 20.6665C18.0796 20.6665 17.3334 19.9203 17.3334 18.9998C17.3334 18.0794 18.0796 17.3332 19.0001 17.3332C19.9206 17.3332 20.6667 18.0794 20.6667 18.9998Z" fill="#22C85A"/>
</svg>
