<svg width="34" height="34" viewBox="0 0 34 34" fill="none" xmlns="http://www.w3.org/2000/svg">
<path fill-rule="evenodd" clip-rule="evenodd" d="M8.72263 6.99992C9.21261 3.35857 12.8516 0.333252 17 0.333252C21.1484 0.333252 24.7873 3.35857 25.2773 6.99992H30.0783C31.9192 6.99992 33.4116 8.4923 33.4116 10.3333C33.4116 10.491 33.4004 10.6485 33.3781 10.8047L30.521 30.8047C30.2864 32.4468 28.88 33.6666 27.2211 33.6666H6.77879C5.11996 33.6666 3.71355 32.4468 3.47896 30.8047L0.621817 10.8047C0.361467 8.98221 1.6278 7.29377 3.45024 7.03342C3.60639 7.01111 3.76392 6.99992 3.92165 6.99992H8.72263ZM12.1201 6.99992H21.8797C21.3731 5.23005 19.33 3.66659 16.9999 3.66659C14.6699 3.66659 12.6268 5.23005 12.1201 6.99992ZM3.92164 10.3333H8.66662V13.6666H12V10.3333H22V13.6666H25.3333V10.3333H30.0783L27.2211 30.3333H6.77878L3.92164 10.3333Z" fill="#22C85A"/>
</svg>
