<svg width="21" height="21" viewBox="0 0 21 21" fill="none" xmlns="http://www.w3.org/2000/svg">
<path fill-rule="evenodd" clip-rule="evenodd" d="M0.903687 11.7481H2.76073C3.17748 15.518 6.17082 18.5114 9.94072 18.9281V20.7852H11.7481V18.9281C15.518 18.5114 18.5114 15.518 18.9281 11.7481H20.7852V9.94072H18.9281C18.5114 6.17082 15.518 3.17748 11.7481 2.76073V0.903687H9.94072V2.76073C6.17082 3.17748 3.17748 6.17082 2.76073 9.94072H0.903687V11.7481ZM4.5185 10.8444C4.5185 7.35073 7.35071 4.51852 10.8444 4.51852C14.3381 4.51852 17.1703 7.35073 17.1703 10.8444C17.1703 14.3382 14.3381 17.1704 10.8444 17.1704C7.35071 17.1704 4.5185 14.3382 4.5185 10.8444ZM10.8444 7.22967C12.8408 7.22967 14.4592 8.84808 14.4592 10.8445C14.4592 12.8409 12.8408 14.4593 10.8444 14.4593C8.84802 14.4593 7.22961 12.8409 7.22961 10.8445C7.22961 8.84808 8.84802 7.22967 10.8444 7.22967ZM9.03699 10.8444C9.03699 9.84621 9.84619 9.03701 10.8444 9.03701C11.8426 9.03701 12.6518 9.84621 12.6518 10.8444C12.6518 11.8426 11.8426 12.6518 10.8444 12.6518C9.84619 12.6518 9.03699 11.8426 9.03699 10.8444Z" fill="#707070"/>
</svg>
