<svg width="20" height="19" viewBox="0 0 20 19" fill="none" xmlns="http://www.w3.org/2000/svg">
<path fill-rule="evenodd" clip-rule="evenodd" d="M9.94071 18.3714C4.9081 18.3714 0.828369 14.2917 0.828369 9.25907C0.828369 4.22646 4.9081 0.146729 9.94071 0.146729C14.9733 0.146729 19.0531 4.22646 19.0531 9.25907C19.0531 14.2917 14.9733 18.3714 9.94071 18.3714ZM9.94067 16.7146C14.0583 16.7146 17.3962 13.3767 17.3962 9.25908C17.3962 5.14149 14.0583 1.80353 9.94067 1.80353C5.82308 1.80353 2.48511 5.14149 2.48511 9.25908C2.48511 13.3767 5.82308 16.7146 9.94067 16.7146ZM14.0826 8.43067H10.7691V4.2887H9.11227V10.0875H14.0826V8.43067Z" fill="#707070"/>
</svg>
