<svg width="32" height="32" viewBox="0 0 32 32" fill="none" xmlns="http://www.w3.org/2000/svg">
<path fill-rule="evenodd" clip-rule="evenodd" d="M2.38991 0C1.07 0 0 1.07 0 2.38991V29.6101C0 30.93 1.07 32 2.38991 32H29.6101C30.93 32 32 30.93 32 29.6101V2.38991C32 1.07 30.93 0 29.6101 0H2.38991ZM17.3966 16.1095V24.2208H14.0405V16.1098H12.3638V13.3146H14.0405V11.6363C14.0405 9.35601 14.9873 8.00003 17.6771 8.00003H19.9165V10.7956H18.5168C17.4697 10.7956 17.4004 11.1862 17.4004 11.9152L17.3966 13.3143H19.9324L19.6357 16.1095H17.3966Z" fill="#3B5998"/>
</svg>
