<svg width="27" height="27" viewBox="0 0 27 27" fill="none" xmlns="http://www.w3.org/2000/svg">
<path fill-rule="evenodd" clip-rule="evenodd" d="M12.5992 13.8879C11.7026 12.9904 10.9617 12.0207 10.5685 11.2351C10.4394 10.9771 10.3591 10.7608 10.3239 10.6061L11.1191 9.81037C11.2935 9.63576 11.3774 9.55075 11.4858 9.43683C11.7154 9.1955 11.9069 8.97496 12.0753 8.748C12.833 7.72693 13.1146 6.61539 12.2177 5.61448C10.5194 3.23896 9.37698 1.76969 8.64452 1.04618C7.1332 -0.446713 4.67094 -0.246716 3.36025 1.0447C2.72737 1.66826 2.51225 1.88327 1.86239 2.54331C-1.93278 6.34034 0.330673 14.1901 6.31119 20.1763C12.2907 26.1614 20.1411 28.4262 23.9463 24.619C24.5437 24.0433 25.0541 23.5326 25.458 23.1057C26.7367 21.7543 26.9298 19.3981 25.4483 17.8588C24.7438 17.1269 23.3429 16.0398 20.865 14.267C19.9586 13.4634 18.8985 13.6377 17.9566 14.2556C17.5324 14.5339 17.2339 14.8061 16.6718 15.3687L15.8774 16.1635C15.7229 16.1283 15.5068 16.048 15.2493 15.919C14.464 15.5258 13.4951 14.7846 12.5992 13.8879ZM18.0253 18.6955L19.012 17.7083C19.1805 17.5396 19.3138 17.4094 19.4241 17.3073C21.422 18.7475 22.5911 19.6634 23.0633 20.154C23.2238 20.3208 23.1942 20.6818 23.0535 20.8305C22.6883 21.2165 22.2121 21.693 21.6267 22.2576C19.4666 24.4184 13.5106 22.7001 8.65159 17.8366C3.79074 12.9712 2.07288 7.01354 4.21106 4.87429C4.85755 4.21773 5.06087 4.01451 5.68216 3.40238C5.7808 3.30518 6.18789 3.27211 6.31826 3.4009C6.82824 3.90467 7.78314 5.12172 9.17889 7.05745C9.15024 7.08866 9.11987 7.12113 9.08774 7.1549C9.0038 7.24311 8.93307 7.31479 8.77733 7.47069C8.46433 7.78394 8.32768 7.9207 8.19101 8.05742L7.79122 8.45729C5.89258 10.3557 7.39926 13.3663 10.2574 16.2272C13.1139 19.0864 16.1267 20.5951 18.0253 18.6955Z" fill="white"/>
</svg>
