<svg width="20" height="20" viewBox="0 0 20 20" fill="none" xmlns="http://www.w3.org/2000/svg">
<path fill-rule="evenodd" clip-rule="evenodd" d="M9.51264 10.4856C8.8357 9.80803 8.27629 9.07587 7.97944 8.48272C7.88198 8.28796 7.82135 8.12458 7.79473 8.00779L8.39514 7.40702C8.52685 7.27519 8.59017 7.21101 8.67201 7.125C8.84538 6.94279 8.98993 6.77628 9.1171 6.60491C9.68919 5.83399 9.90179 4.99475 9.22458 4.23904C7.94238 2.44548 7.07981 1.33615 6.52679 0.789877C5.38571 -0.337274 3.52665 -0.186275 2.53706 0.788765C2.05922 1.25957 1.8968 1.42191 1.40615 1.92025C-1.45929 4.78708 0.249665 10.7138 4.76507 15.2335C9.27971 19.7523 15.2069 21.4624 18.08 18.5879C18.531 18.1532 18.9164 17.7676 19.2213 17.4453C20.1868 16.4249 20.3325 14.6459 19.214 13.4838C18.6821 12.9311 17.6243 12.1103 15.7535 10.7718C15.0691 10.1652 14.2687 10.2968 13.5576 10.7633C13.2373 10.9734 13.0119 11.1789 12.5876 11.6037L11.9878 12.2038C11.8711 12.1772 11.708 12.1166 11.5135 12.0192C10.9206 11.7223 10.1891 11.1627 9.51264 10.4856ZM13.6099 14.1156L14.3549 13.3702C14.4821 13.2429 14.5828 13.1446 14.666 13.0675C16.1745 14.1549 17.0572 14.8464 17.4137 15.2168C17.5349 15.3428 17.5126 15.6153 17.4063 15.7276C17.1306 16.019 16.771 16.3788 16.329 16.8051C14.6981 18.4366 10.2012 17.1392 6.53258 13.4671C2.86254 9.79364 1.56553 5.29551 3.17989 3.68033C3.668 3.18462 3.82152 3.03119 4.2906 2.56901C4.36508 2.49562 4.67243 2.47066 4.77087 2.56789C5.15592 2.94824 5.87689 3.86715 6.9307 5.32867C6.90907 5.35222 6.88614 5.37673 6.86188 5.40223C6.79851 5.46883 6.7451 5.52296 6.62752 5.64066L5.88299 6.38557C4.44948 7.81889 5.58704 10.092 7.74502 12.252C9.90175 14.4107 12.1764 15.5498 13.6099 14.1156Z" fill="#8DC100"/>
</svg>
