<svg width="33" height="32" viewBox="0 0 33 32" fill="none" xmlns="http://www.w3.org/2000/svg">
<path fill-rule="evenodd" clip-rule="evenodd" d="M2.77272 0C1.45281 0 0.382812 1.07 0.382812 2.38991V29.6101C0.382812 30.93 1.45281 32 2.77272 32H29.9929C31.3128 32 32.3828 30.93 32.3828 29.6101V2.38991C32.3828 1.07 31.3128 0 29.9929 0H2.77272ZM16.1132 8.72951H16.1129H16.1127C15.9328 8.72943 15.7661 8.72936 15.6112 8.7296V8.72738C13.9516 8.72923 13.6333 8.74036 12.8119 8.77746C11.9437 8.81735 11.4723 8.96204 11.1585 9.08448C10.7429 9.24624 10.4461 9.43917 10.1345 9.75082C9.82282 10.0625 9.62952 10.3593 9.46813 10.7748C9.34625 11.0887 9.20118 11.5599 9.16148 12.4281C9.11882 13.3667 9.11028 13.6472 9.11028 16.025C9.11028 18.4029 9.11882 18.6848 9.16148 19.6235C9.201 20.4917 9.34625 20.9629 9.46813 21.2764C9.62989 21.6921 9.82282 21.9882 10.1345 22.2998C10.4461 22.6115 10.7429 22.8044 11.1585 22.9658C11.4725 23.0877 11.9437 23.2327 12.8119 23.2728C13.7506 23.3155 14.0323 23.3247 16.41 23.3247C18.7874 23.3247 19.0694 23.3155 20.0081 23.2728C20.8763 23.2331 21.3478 23.0884 21.6613 22.966C22.077 22.8046 22.3729 22.6117 22.6846 22.3C22.9962 21.9885 23.1895 21.6926 23.3509 21.2771C23.4728 20.9636 23.6179 20.4924 23.6576 19.6242C23.7002 18.6856 23.7095 18.4036 23.7095 16.0273C23.7095 13.6509 23.7002 13.3689 23.6576 12.4303C23.618 11.5621 23.4728 11.0909 23.3509 10.7774C23.1892 10.3619 22.9962 10.0651 22.6846 9.75342C22.3731 9.44176 22.0769 9.24884 21.6613 9.08744C21.3474 8.96557 20.8763 8.8205 20.0081 8.7808C19.0692 8.73813 18.7874 8.7296 16.41 8.7296L16.1132 8.72951ZM20.0945 11.2762C20.0945 10.6861 20.5731 10.2081 21.163 10.2081C21.753 10.2081 22.2316 10.6863 22.2316 11.2762C22.2316 11.8662 21.753 12.3448 21.163 12.3448C20.5731 12.3448 20.0945 11.8662 20.0945 11.2762ZM11.8382 16.0293C11.8382 13.504 13.8857 11.4565 16.411 11.4565C18.9363 11.4565 20.983 13.504 20.983 16.0293C20.983 18.5546 18.9363 20.6011 16.411 20.6011C13.8857 20.6011 11.8382 18.5546 11.8382 16.0293ZM19.3461 16.0538C19.3461 14.447 18.0435 13.1447 16.437 13.1447C14.8303 13.1447 13.5279 14.447 13.5279 16.0538C13.5279 17.6603 14.8303 18.9629 16.437 18.9629C18.0435 18.9629 19.3461 17.6603 19.3461 16.0538Z" fill="url(#paint0_linear)"/>
<defs>
<linearGradient id="paint0_linear" x1="47.5" y1="-29" x2="10" y2="34" gradientUnits="userSpaceOnUse">
<stop stop-color="#F58529"/>
<stop offset="0.2375" stop-color="#FEDA77"/>
<stop offset="0.669792" stop-color="#DD2A7B"/>
<stop offset="1" stop-color="#8134AF"/>
</linearGradient>
</defs>
</svg>
