<svg width="46" height="46" viewBox="0 0 46 46" fill="none" xmlns="http://www.w3.org/2000/svg">
<path fill-rule="evenodd" clip-rule="evenodd" d="M23 45.9166C10.3435 45.9166 0.083374 35.6564 0.083374 22.9999C0.083374 10.3434 10.3435 0.083252 23 0.083252C35.6566 0.083252 45.9167 10.3434 45.9167 22.9999C45.9167 35.6564 35.6566 45.9166 23 45.9166ZM23 41.7499C33.3554 41.7499 41.75 33.3553 41.75 22.9999C41.75 12.6446 33.3554 4.24992 23 4.24992C12.6447 4.24992 4.25004 12.6446 4.25004 22.9999C4.25004 33.3553 12.6447 41.7499 23 41.7499ZM33.4167 20.9166H25.0834V10.4999H20.9167V25.0833H33.4167V20.9166Z" fill="#8DC100"/>
</svg>
