<svg width="33" height="32" viewBox="0 0 33 32" fill="none" xmlns="http://www.w3.org/2000/svg">
<path fill-rule="evenodd" clip-rule="evenodd" d="M3.15553 0C1.83562 0 0.765625 1.07 0.765625 2.38991V29.6101C0.765625 30.93 1.83562 32 3.15553 32H30.3757C31.6956 32 32.7656 30.93 32.7656 29.6101V2.38991C32.7656 1.07 31.6956 0 30.3757 0H3.15553ZM17.9311 20.3185C17.7841 20.4735 17.4971 20.5048 17.4971 20.5048H16.5466C16.5466 20.5048 14.4496 20.6285 12.6023 18.7411C10.5877 16.6819 8.80886 12.5964 8.80886 12.5964C8.80886 12.5964 8.70618 12.3284 8.81741 12.1994C8.94264 12.0536 9.2841 12.0444 9.2841 12.0444L11.5561 12.0299C11.5561 12.0299 11.77 12.0642 11.9232 12.175C12.05 12.2666 12.1208 12.4368 12.1208 12.4368C12.1208 12.4368 12.4879 13.3485 12.9741 14.173C13.9238 15.7833 14.3656 16.1352 14.6876 15.9627C15.1574 15.7115 15.0166 13.6867 15.0166 13.6867C15.0166 13.6867 15.0252 12.9522 14.7802 12.6247C14.5904 12.3712 14.2326 12.2971 14.0747 12.2765C13.9463 12.2597 14.1564 11.968 14.4286 11.8375C14.8377 11.6413 15.5595 11.6298 16.4128 11.6382C17.0778 11.6451 17.2692 11.6855 17.529 11.7474C18.1319 11.8902 18.1131 12.3479 18.0725 13.3357C18.0603 13.6312 18.0462 13.974 18.0462 14.37C18.0462 14.459 18.0436 14.5539 18.0409 14.6515C18.0268 15.1575 18.0106 15.7371 18.3503 15.9528C18.5246 16.0627 18.95 15.9688 20.0149 14.1944C20.5197 13.353 20.8977 12.3643 20.8977 12.3643C20.8977 12.3643 20.9809 12.1879 21.1093 12.1123C21.2407 12.0352 21.4181 12.0589 21.4181 12.0589L23.8091 12.0444C23.8091 12.0444 24.5278 11.9596 24.6437 12.2788C24.7658 12.6124 24.3753 13.3927 23.3984 14.6708C22.4717 15.8836 22.0207 16.3301 22.0621 16.725C22.0923 17.0135 22.3855 17.2745 22.948 17.7867C24.1224 18.8569 24.4371 19.42 24.5128 19.5553C24.519 19.5665 24.5237 19.5748 24.527 19.5802C25.0536 20.4376 23.9429 20.5048 23.9429 20.5048L21.8186 20.5338C21.8186 20.5338 21.3628 20.6224 20.7624 20.2177C20.4478 20.0059 20.1404 19.66 19.8477 19.3305C19.4006 18.8273 18.9876 18.3625 18.635 18.4723C18.0431 18.6571 18.061 19.9085 18.061 19.9085C18.061 19.9085 18.0657 20.1765 17.9311 20.3185Z" fill="white"/>
</svg>
